<?xml version="1.0" encoding="utf-8"?>
<!-- Generator: Adobe Illustrator 16.0.0, SVG Export Plug-In . SVG Version: 6.00 Build 0)  -->
<!DOCTYPE svg PUBLIC "-//W3C//DTD SVG 1.1//EN" "http://www.w3.org/Graphics/SVG/1.1/DTD/svg11.dtd">
<svg version="1.1" id="Capa_1" xmlns="http://www.w3.org/2000/svg" xmlns:xlink="http://www.w3.org/1999/xlink" x="0px" y="0px"
	 width="702.8px" height="281.021px" viewBox="0 0 702.8 281.021" enable-background="new 0 0 702.8 281.021" xml:space="preserve">
<path fill="#1F2018" d="M685.017,191.127l-0.855-0.305l-6.66-2.355l-7.018-2.58v-10.479l2.846-10.577l0.785-2.914l5.9-21.931
	h-18.389v-10.45h-1.717v-2.092l3.75-7.934l-3.025-1.007l39.803-37.002l-45.654,11.635V82.165V64.783h-17.246h-23.078h-17.246v0.756
	h-0.848v1.954l-16.936-31.348l0.66,8.485l-0.402-0.731l1.492,20.666h-0.826l-7.725-14.08l1.008,14.08h-6.439H540.06V56.31
	l-28.852-2.708l-0.367,2.147l-13.053-23.098l0.613,6.244l-0.529-0.936l1.777,17.555l-1.104,0.226l-6.27-11.044l1.229,12.076
	l-4.588,0.939l-0.461-1.323l-0.646-1.861l-6.629-19.081L480.8,35.65v-0.318l-22.955,8.112c-0.396,0.14-0.666,0.217-0.824,0.257
	h-19.605l1.273,8.495h-5.076l1.389,10.292l-3.936,5.414l-1.307,0.378V27.734l-15.779,27.883l-3.393-5.323l0.918-4.743h-3.941
	l-5.576-8.747v4.551l-7.1-22.164v17.247l-3.527-10.994v20.107h-0.787h-1.082h-3.715V29.733h-0.686v-0.46l4.283-18.553h-4.283V0
	l-11.475,10.72h-5.963h-1.049h-13.678l-2.582,11.118c-1.625-0.01-3.214-0.016-4.75-0.016l1.192,15.348l-2.596,11.184h0.228
	l-1.904,8.278h4.676v6.397l-7.073,0.946h-24.989l-1.716-1.425l0.361,1.425h-7.556l-2.458-3.483l-4.952,3.483h-2.949h-6.155
	l-5.023-2.638l-10.154-7.3l-1.034,1.425l-2.389-1.254l-2.217,7.604l-4.303,5.931c-0.715-0.432-1.46-0.812-2.227-1.138L229.61,23.36
	l3.396,38.159l-14.218,2.237c-1.233,0.195-2.515,0.289-3.918,0.289c-1.061,0-1.945-0.057-2.631-0.168l-20-3.26v3.948h-5.72
	c-0.587-0.4-1.174-0.804-1.747-1.235l-0.396,1.235h-48.49V54.493h-1.631V46.08h-17.247h-1.045H98.716v17.364H84.389l4.941-17.91
	h-5.113l2.101-7.555h-0.092l0.322-1.158H84.13v-0.078l-0.083,0.078H81.15V25.842l-2.379,2.244h-15.65h-1.053H44.821v17.382v1.747
	v7.158l-2.486,9.071H25.622H4.791l3.887,20.624l24.141,128.12l-7.32-6.883l-11.768,12.561l-2.178,2.324L0,232.52l11.946,11.943
	l6.018,6.016l11.582,11.582l10.818-9.834l0.294,1.559h5.68l0.284,1.502h20.622l3.068,25.734l20.747-17.797l16.037,12.352
	l0.043-1.375l1.384,2.656l2.788-21.57h6.158v1.588h8.017l20.687,15.572v-1.338l1.344,1v-15.234h1.588v-1.49h45.266v0.512h13.065
	v0.607h91.345l-0.341-1.451h2.023v0.635h21.145l-2.728,3.715l1.184-0.652l-1.192,1.648l8.294-4.711h0.315l-9.286,14.064l0.325-0.238
	l-3.279,4.963l13.086-9.236l0.446,12.59l2.158-7.203l0.074,1.959l3.546-11.75l2.206-1.574l4.742,9.416l-1.854-11.451l0.361-0.266
	l3.146,6.234l-1.226-7.508h10.349v-1.479h4.023v-0.898h1.139v-1.555h4.143v-4.402l1.006,0.447v7.678h44.43v15.793l3.418-6.07v8.223
	l10.91-19.426h0.336l0.623,2.268l7.559-11.139c8.455,7.332,18.758,10.971,30.162,10.971c5.793,0,10.975-0.809,15.6-2.291
	c5.9-1.039,10.869-2.99,15.043-5.42l-1.184,7.51h55.795v-1.477h2.771l0.213,1.477h49.5l6.387,7.129l-0.969-5.352l17.359,18.34
	l5.822-5.625l2.117,2.234l-1.58-3.896l1.6-5.047l8.779-7.783h3.877v2.098h35.496v-1.398h12.49v-17.381v-11.479l5.119-11.361
	l0.748-1.662l7.793-17.293L685.017,191.127z"/>
<path fill-rule="evenodd" clip-rule="evenodd" fill="#A1C06C" d="M636.126,172.217c0-1.156-0.266-1.941-0.771-2.422
	c-0.744,0.896-1.805,1.305-3.104,1.305c0.18,0.541,0.438,1.314,0.764,2.313c0.928-0.998,1.73-1.494,2.34-1.494
	C635.681,171.918,635.935,172.014,636.126,172.217 M597.71,225.963h-1.027v-3.979h1.027V225.963z M595.37,219.979h-1.023v-2.172
	h1.023V219.979z M597.71,209.217h-1.027v-3.4h1.027V209.217z M597.269,205.096c-0.768-0.85-1.416-1.295-1.994-1.295v-2.18
	c0.867,0,1.543-0.133,1.994-0.396V205.096z M590.202,190.879l-0.777,2.377l-0.83-0.412l0.768-1.965H590.202z M601.118,201.225
	l-0.771,1.598l-0.73-0.41l0.73-1.492L601.118,201.225z M597.075,192.27l-2.189,3.98l-0.826-0.412l2.238-3.879L597.075,192.27z
	 M598.833,196.041h-1.016v-2.203h1.016V196.041z M590.202,179.869h-1.037v-2.166h1.037V179.869z M605.792,192.27l-0.717,1.568
	l-0.879-0.385l0.775-1.494L605.792,192.27z M608.647,192.742l-0.648,0.621l-1.416-1.502l0.641-0.613L608.647,192.742z
	 M597.995,174.703c0,1.734-0.541,3.465-1.598,5.275v-3.68C596.397,175.244,596.948,174.703,597.995,174.703 M597.71,173.887h-1.027
	v-6.979h1.027V173.887z M606.38,178.102h-1.021v-4.014h1.021V178.102z M598.292,166.119h-0.871l-0.738-1.389l0.846-0.314
	L598.292,166.119z M597.71,159.721l-0.635,2.828h-1.033l0.74-2.828H597.71z M596.501,156.934l-0.748,1.594l-0.762-0.359l0.66-1.512
	L596.501,156.934z M606.687,167.625h-2.746v-0.988h2.746V167.625z M604.972,157.338c-0.324,0.478-0.803,1.229-1.41,2.317v-3.819
	C603.612,156.867,604.11,157.338,604.972,157.338 M607.517,156.146l-1.313,4.198l-0.846-0.416l1.328-3.782H607.517z
	 M598.292,146.795l-0.764,1.561l-0.846-0.387l0.738-1.481L598.292,146.795z M606.38,153.969l-1.021,2.177l-0.859-0.399l1.023-2.074
	L606.38,153.969z M574.591,120.442l-0.766,1.601l-0.826-0.413l0.721-1.5L574.591,120.442z M648.339,204.523h-2.994
	c-1.713,0-2.766-1.02-3.152-3.104c-0.412-2.033-1.033-3.057-1.861-2.99c0.135-1.4,0.354-3.508,0.678-6.371
	c1.254,0,1.967-0.129,2.15-0.408c-1.73-1.668-3.086-3.223-4.045-4.691c0-0.588,0.959-1.297,2.826-2.08
	c0,1.533,0.67,3.033,1.998,4.498C645.669,194.543,647.146,199.586,648.339,204.523 M635.261,184.674h-0.936v-2.205h0.936V184.674z
	 M605.263,149.174l-0.764,1.601l-0.844-0.412l0.742-1.495L605.263,149.174z M638.179,181.889l-0.721,2.373l-0.775-0.396l0.67-1.977
	H638.179z M587.665,128.817c0,0.47-0.289,0.985-0.865,1.492c-0.42-0.198-0.906-0.436-1.42-0.783c0-1.463,0.514-2.204,1.521-2.204
	C587.407,127.795,587.665,128.309,587.665,128.817 M641.378,178.891c0,0.613-0.471,2.346-1.383,5.275
	c0-0.584-0.137-1.467-0.404-2.619c-0.254-1.188-0.383-2.043-0.383-2.656H641.378z M596.501,130.215l-2.061,2.109l-0.572-0.719
	l1.984-1.964L596.501,130.215z M671.767,208.393l-0.732,1.611l-0.873-0.414l0.768-1.492L671.767,208.393z M664.519,239.141h-3.863
	v-2.111h-51.543v-33.229c0-0.367-0.385-0.576-1.113-0.576c0.539-1.256,0.832-1.838,0.832-1.695v-40.68
	c-0.328,0.27-0.477,0.504-0.477,0.779v0.404V86.748h22.566v30.903c0,0.926,0.424,1.298,1.262,1.086l-0.777,0.719
	c-0.205,4.599-0.299,8.581-0.299,11.943c0,5.656,0.299,9.701,0.881,12.085c0.346-0.474,0.549-1.327,0.549-2.59
	c0-1.049-0.137-2.406-0.354-3.976c0.15,1.975,0.736,4.73,1.664,8.274c-0.297-0.13-0.621-0.212-0.928-0.212
	c-1.256,0-1.895,1.095-1.895,3.308c0,0.994,0.082,1.563,0.285,1.771l1.313-1.191l2.639,11.577c3.354,2.647,4.965,6.431,4.965,11.362
	v3.305c-0.221,0.066-0.508,0.105-0.818,0.105c-0.402,0-0.975-0.105-1.734-0.305c-0.775-0.209-1.381-0.307-1.738-0.307
	c-0.775,0-1.504,0.404-2.287,1.186l-1.217-1.186c-0.219,0.139-0.701,0.473-1.406,0.982l0.475,2.686
	c0.508-0.439,1.291-1.021,2.348-1.67c-0.359,0.385-0.551,0.787-0.551,1.191c0,0.373,0.125,0.717,0.352,0.994
	c0.584-0.277,1.068-0.406,1.414-0.406c-0.92,1.393-1.598,4.186-2.047,8.371c-0.189,3.053-0.428,6.121-0.682,9.189
	c-0.859,1.049-1.309,2.041-1.309,2.893v17.053h31.814v0.516c0,0.918,0.557,1.594,1.68,2.078V239.141z M646.276,172.115h-0.932
	v-3.402h0.932V172.115z M600.538,124.252h-0.922v-5.784h0.922V124.252z M584.358,102.813l-2.156,1.394l-0.482-0.824l2.094-1.39
	L584.358,102.813z M598.677,116.974c-1.313,0.708-1.818,1.763-1.5,3.157v-0.168c0.059-0.264-0.229-0.673-0.879-1.253
	c-0.598-0.586-0.996-0.955-1.117-1.155c0.449-0.517,1.088-1.259,1.996-2.185L598.677,116.974z M586.983,101.212h-1.605v-1.022h1.605
	V101.212z M637.614,151.756h-1.041v-2.176h1.041V151.756z M650.415,159.721l-0.768,2.828h-0.928l0.66-2.828H650.415z
	 M633.015,133.003l-0.764,1.604l-0.846-0.416l0.777-1.462L633.015,133.003z M635.935,137.393h-1.029v-3.369h1.029V137.393z
	 M552.083,174.283c-0.139,0.691-0.391,1.199-0.77,1.607c-0.869,0-1.775-0.916-2.645-2.787
	C549.321,173.104,550.444,173.508,552.083,174.283 M570.698,193.256h-2.08c-0.744-1.26-1.541-1.914-2.346-1.914l1.326-1.592
	C568.911,190.42,569.948,191.586,570.698,193.256 M516.042,233.045h-1.057v1.604h1.057V233.045z M511.235,169.117
	c-0.328-0.334-0.756-0.684-1.328-0.986c-0.928,0-1.412,0.75-1.412,2.285C509.142,170.07,510.048,169.633,511.235,169.117
	 M509.077,166.908l-2.191-0.789v0.887l1.9,0.711L509.077,166.908z M546.624,196.625l-0.861-0.275l-0.645,1.494l0.729,0.377
	L546.624,196.625z M522.534,161.629h-2.639v2.215h1.965C522.319,163.435,522.534,162.687,522.534,161.629 M549.7,193.154
	c0-0.818-0.439-1.74-1.402-2.797v1.195c0,0.676,0.02,1.359,0.096,2.109C548.71,193.453,549.155,193.283,549.7,193.154
	 M566.181,205.713c-0.611-0.996-0.941-2.176-0.941-3.568c0-0.543,0.031-1.096,0.107-1.604c0,0.379-0.385,0.988-1.129,1.771
	l-2.277-2.385c0.195,1.602,0.35,2.783,0.486,3.609c1.76-0.539,2.623,0,2.623,1.559c0,0.545-0.119,1.232-0.387,2.012L566.181,205.713
	z M546.888,182.771v-1.086l-4.891,0.604v1.094L546.888,182.771z M583.968,221.676h-0.953v1.605h0.953V221.676z M542.669,171.807
	h-1.057v2.799h1.057V171.807z M561.388,189.273h-1.053l-0.541,3.367h0.928L561.388,189.273z M573.802,203.023h-0.941l-0.395,2.178
	h0.979L573.802,203.023z M564.122,192.27h-0.959v3.363h0.959V192.27z M572.663,201.225h-1.02v2.785h1.02V201.225z M572.124,201.016
	l-0.676-3.371h-0.926l0.535,3.371H572.124z M575.499,197.645h-1.027v2.182h1.027V197.645z M577.112,194.852
	c-0.463-0.268-1.842-1.432-4.148-3.51c-2.063-1.836-3.324-2.781-3.676-2.781c-0.637,0-1.66,0.227-3.039,0.637
	c-1.424,0.445-2.514,0.609-3.289,0.553h-0.338c0.188,0.67,0.281,1.219,0.338,1.701c0.461-0.135,0.846-0.203,1.162-0.203
	c0.607,0,1.117,0.236,1.48,0.711c-0.23,0.916-0.363,1.879-0.363,2.893v0.891c0,0.412,0.031,0.98,0.107,1.805
	c0.805-1.805,1.406-3.203,1.764-4.184c1.766,0.4,2.641,1.594,2.641,3.568c0,0.203-0.039,0.375-0.111,0.514
	c1.301-0.484,1.738-0.723,1.418-0.723c0.123,0,0.229,0.039,0.291,0.111c-0.93-0.717-1.539-1.4-1.764-1.982l0.938-0.916
	c0.322,0.273,0.764,0.607,1.406,1.021c0.195-0.273,0.453-0.613,0.838-1.021c0.258,0.408,0.443,0.807,0.572,1.227
	c-0.314-2.219-0.479-3.203-0.479-2.996l1.318,1.598c0,0.379-0.061,0.979-0.227,1.836c-0.15,0.82-0.26,1.43-0.26,1.846
	c0.52-0.139,1.238-0.346,2.09-0.611c0-0.65-0.068-1.639-0.193-2.898C575.907,194.143,576.397,194.453,577.112,194.852
	 M555.454,173.203l-7.061-48.27l-6.502,44.08c-0.047,0.723,0.428,1.707,1.426,2.904c1.256,1.529,1.93,2.34,1.99,2.475
	c-0.391,0.414-1.133,0.617-2.289,0.617c1.576,0.781,2.357,1.564,2.289,2.277c-0.961,0.348-2.096,0.846-3.416,1.502
	c0.652,0,1.619-0.066,2.908-0.242c1.281-0.164,2.213-0.273,2.848-0.273c0,0.549-0.223,1.023-0.664,1.395l2.277,1.5
	c0,0.406-0.398,1.025-1.135,1.803h2.748v-0.502c0-1.195,0.564-2.801,1.758-4.766C553.563,176.234,554.515,174.744,555.454,173.203
	 M557.058,87.527h-2.094v1.014h2.094V87.527z M465.886,157.556l-3.215-0.622v-1.098l3.215,0.723V157.556z M473.296,158.946
	l-1.303,1.397c-1.256-0.623-2.68-2.012-4.215-4.198c2.506,1.601,3.785,2.382,3.855,2.382c0.422,0,0.646-0.102,0.646-0.266
	c-0.08-0.2-0.199-0.411-0.391-0.611C472.2,157.992,472.69,158.399,473.296,158.946 M491.388,165.338h-1.516v-1.022h1.516V165.338z
	 M489.685,159.555l-6.111-2.516l2.637-0.894C487.015,156.902,488.171,158.024,489.685,159.555 M587.052,237.029h-21.898
	c-1.768-11.91-3.531-22.705-5.273-32.402c-7.543-0.752-14.195-1.09-19.943-1.09c-1.818,0-2.961,0.85-3.396,2.582
	c-0.133,0.439-0.223,2.08-0.301,4.863c0,1.027-0.086,1.846-0.254,2.529c-0.51,3.707-1.248,9.084-2.271,16.133
	c-0.26,1.799-0.939,3.006-2.053,3.604l1.027,0.377v3.404h-21.355l7.887-50.449c-0.994-0.473-3.785-2.176-8.369-5.107
	c-2.383-1.525-5.947-3.305-10.734-5.377c-3.816-1.459-9.48-3.773-17.018-6.979c-0.447-0.197-1.385-1.02-2.834-2.48
	c-1.117-1.164-2.236-1.703-3.365-1.703l-0.971-1.294c0.074-0.205,0.102-0.345,0.102-0.413c0-0.54-0.324-0.745-1.02-0.678
	c1.369-0.68,3.107-1.027,5.172-1.027c1.113,0,3.527,1.607,7.184,4.814c3.689,3.193,6.168,4.764,7.482,4.764
	c5.527,0,11.307,2.988,17.318,8.986c1.25,0,2.664-0.516,4.234-1.604l-1.672-1.777h3.572l1.213-0.102
	c0.322,0,0.486-0.029,0.486-0.092l0.93-1.029l0.098-0.371c0-0.881-2.342-2.215-7.064-4.012l-0.396,1.598l-0.176-0.209
	c0.248,0.408,0.48,0.924,0.66,1.502c-0.58-0.074-0.988,0.098-1.289,0.475c-0.244,0.342-0.398,0.854-0.398,1.426H510.3
	c-0.193-0.266-1.158-1.328-2.92-3.193c-1.516-1.598-2.26-2.627-2.26-3.064c0-0.48,0.201-0.92,0.559-1.334v-3.365
	c-0.254-0.273-0.645-0.408-1.225-0.408c-1.256,0-1.797,0.914-1.707,2.789h-3.371c0.615-0.063,1.383-0.309,2.258-0.678
	c-1-1.801-2.322-3.233-3.955-4.291c0.443,0.068,0.961,0.105,1.504,0.105c1.393,0,3.178-0.279,5.373-0.822l-2.254-2.379
	c1.93,1.053,3.311,2.01,4.15,2.895c-0.074-0.75-0.096-1.941-0.096-3.617c2.182,1.193,3.75,1.816,4.68,1.816
	c0.381,0,0.771-0.206,1.131-0.623c0.371-0.377,0.758-0.572,1.15-0.572c0.486,0.271,1.412,0.643,2.725,1.195
	c0.102-0.141,0.168-0.281,0.168-0.416c0,0-0.262-0.602-0.83-1.866c1.568-0.481,2.268-0.724,2.143-0.724
	c0.453,0,0.965,0.619,1.518,1.811c0.318-0.202,0.596-0.581,0.855-1.087c0.68,0,1.553,0.741,2.639,2.282
	c1.936-7.323,2.885-12.736,2.885-16.243c0-0.407-0.697-2.077-2.146-5.001c-1.584-3.204-2.477-5.186-2.73-5.994
	c-0.613-2.187-1.027-5.002-1.215-8.48c0.061-1.973-0.107-4.86-0.484-8.676c0.197,0.346,0.891,4.046,2.088,11.167
	c0.99,5.919,2.566,10.377,4.691,13.378l8.949-53.958h27.564c0.129,0.752,5.879,35.41,17.221,104.028
	c0.568,0.709,1.043,1.086,1.498,1.086c-0.383,0.922-0.545,2.451-0.545,4.6h-0.385c-0.963-0.133-2.309,0.41-4.041,1.701
	c0.381,1.332,1.158,2.619,2.336,3.881l-0.293-0.709v1.588c0,3.072,0.584,5.963,1.697,8.682l0.75-0.41
	c-0.547-0.912-0.83-2.107-0.83-3.57c0.051,0.51,0.674,1.535,1.793,2.996c-0.057,0.338-0.094,0.646-0.094,0.984
	c0,1.539,0.646,2.965,1.957,4.289C584.095,220.35,585.38,227.465,587.052,237.029 M581.89,207.721
	c-1.75-1.938-2.637-3.238-2.637-3.92c0-0.297,0.486-1.018,1.404-2.072C580.784,202,581.208,203.975,581.89,207.721 M592.704,196.455
	c0,1.051-0.223,1.797-0.65,2.279c-0.373,0-1.045-0.953-1.975-2.896C590.526,196.25,591.388,196.455,592.704,196.455 M521.757,76.867
	c0.072,3.653-0.414,9.03-1.508,16.068c-1.055,7.058-1.563,12.325-1.563,15.827c0,2.081,0.049,4.059,0.252,5.892
	c-0.299-2.385-0.809-5.99-1.514-10.855c-0.09-0.481-0.227-0.953-0.35-1.499l-0.096,0.411c0.059-0.411,0.709-3.953,1.959-10.594
	c0.697-3.501,1.637-8.806,2.818-15.86V76.867z M440.636,173.104h-0.965v1.502h0.965V173.104z M434.597,163.129h-0.922v1.602h0.922
	V163.129z M440.735,153.262h-0.955l-0.65,2.682h0.936L440.735,153.262z M440.636,151.244l-0.57-0.576l-1.412,1.397l0.572,0.581
	L440.636,151.244z M442.688,93.821c-0.506-0.276-2.689-0.714-6.582-1.298v2.8c0.455,0,0.998,0.366,1.703,1.087
	c0.672,0.744,1.127,1.154,1.32,1.301C440.13,96.643,441.323,95.349,442.688,93.821 M478.919,131.028h-2.625
	c0.191,0.507,0.436,1.296,0.732,2.284c0.328-0.583,0.68-0.927,1.055-0.988c0.135,0.061,0.295,0.156,0.545,0.313
	C478.833,132.221,478.919,131.672,478.919,131.028 M459.083,86.537c0-1.053-0.807-2.005-2.35-2.886
	c-0.838,0.405-1.635,1.527-2.48,3.399C455.96,86.707,457.558,86.537,459.083,86.537 M460.194,81.266
	c-0.635-1.331-1.666-2.828-3.119-4.493l-0.547,5.688C458.403,81.465,459.622,81.068,460.194,81.266 M464.634,82.04
	c-0.906,0.28-2.154,0.754-3.807,1.406c1.959,0.129,2.807,0.205,2.584,0.205L464.634,82.04z M464.634,80.649v-1.978
	c-0.389-0.812-0.846-1.942-1.316-3.398c-0.775-0.547-1.902-1.228-3.416-2.086l-0.736,1.467c0,0.48,0.295,1.362,0.943,2.664
	c0.639,1.293,0.924,2.24,0.924,2.853c0.125,0,0.264-0.035,0.383-0.098c0.322,0,0.838,0.098,1.549,0.271
	C463.702,80.545,464.245,80.649,464.634,80.649 M446.651,190.564l-1.227,4.086l-0.73-0.307l1.207-3.779H446.651z M441.185,184.57
	h-0.83l-0.684-1.393l0.873-0.314L441.185,184.57z M495.503,190.156c0,31.379-10.832,47.078-32.484,47.078
	c-9.922,0-17.977-3.744-24.174-11.271c-5.918-7.176-8.836-16.102-8.836-26.719c0-0.336,0.217-16.473,0.744-48.367
	c0.188,0.265,0.412,1.22,0.633,2.896c0.195,1.392,0.934,2.543,2.188,3.465c0.742-0.985,1.131-1.836,1.131-2.582
	c0-0.546-0.297-1.265-0.912-2.147c-0.57-0.885-0.9-1.564-0.9-2.045v-0.198c0.33,0.403,0.75,0.944,1.229,1.7
	c0.703-0.756,1.287-1.088,1.797-1.088l1.029,1.188l0.193-0.101v-0.895c0.063-0.47-0.35-1.221-1.223-2.203
	c-1.063-1.26-1.666-1.979-1.797-2.181c-0.094,0.713-0.445,1.704-1.021,2.991c-1.328,0-2.094-0.684-2.346-2.006
	c-0.072-0.064-0.105-1.318-0.105-3.774c1.064,0.507,1.877,1.294,2.361,2.28c0-3.573,0.465-5.851,1.398-6.769
	c-1.119-1.469-2.414-1.976-3.855-1.504v-20.051c0-1.192,0.389-3.68,1.119-7.414c0.779-3.78,1.359-6.026,1.803-6.746
	c0.877-1.12,2.096-2.824,3.666-5.073c-0.418-0.68-1.16-2.687-2.152-5.989c0.992-0.404,2.273-0.987,3.857-1.805
	c-0.326-0.651-0.682-1.633-1.035-2.896c0.934-0.268,1.896-1.079,2.926-2.482c1.479,1.192,3.533,2.958,6.104,5.272
	c2.443-1.255,3.85-3.305,4.24-6.089c1.801-0.853,2.729-2.41,2.729-4.654c0-0.693-0.061-1.684-0.191-2.968
	c-0.129-1.298-0.195-2.283-0.195-2.929c0-0.824,0.256-2.077,0.805-3.774c0.545-1.745,0.744-3.064,0.602-4.016
	c1.652,0,3.602-0.374,5.955-1.2c0,0.685-0.361,2.085-1.063,4.188c1.184,1.13,2.277,1.699,3.213,1.699
	c-0.064,1.67,0.967,3.205,3.111,4.597c0.359-0.207,0.83-0.574,1.41-1.089c0.039-0.277-0.256-0.814-0.969-1.663
	c-0.668-0.819-1.084-1.402-1.209-1.737c0.508-0.549,1.127-0.779,1.887-0.779c0.363,0,1.57,1.051,3.574,3.162
	c-0.869,2.155-1.518,3.195-1.898,3.195c-1.002,0-1.641,0.133-1.965,0.413v2.177c0.52,0.135,1.133,0.339,1.906,0.615l1.756,3.259
	c1.381-0.168,3.439-0.54,6.139-1.088c-0.328,2.287-1.377,3.409-3.211,3.409c-0.508,0-0.93-0.202-1.324-0.607l-1.402,1.493
	l0.375,0.715c16.254,5.034,24.391,17.053,24.391,35.985v13.683h-6.527c-0.293-2.288-2.795-4.358-7.521-6.304
	c-0.059-0.059-0.117-0.104-0.189-0.104c-0.252,0.082-0.455,0.21-0.645,0.412c0.488,0.916,1.355,2.178,2.537,3.782
	c0.191,0,0.781-0.176,1.766-0.48v2.694h-1.959c0-0.822,0.035-1.365,0.1-1.715c-0.324,0.145-0.801,0.583-1.428,1.3
	c-0.299,0.345-1.27,0.511-2.9,0.511c-2.441,0-3.92-2.588-4.439-7.688c-0.795-8.448-1.379-13.247-1.666-14.371
	c-1.576-5.106-4.883-7.656-9.891-7.656c-7.969,0-11.953,7.425-11.953,22.33v25.425c0.074-1.264-0.352-2.173-1.219-2.757
	c-0.869-0.539-1.963-0.81-3.213-0.751l-0.641,1.019c0.188,0.243,0.457,0.378,0.832,0.378c-0.059,0.068-0.119,0.104-0.191,0.104
	c-0.246,0-0.453-0.104-0.641-0.265l-0.857,0.877c0.365,0.344,0.857,1.196,1.391,2.588c0.275-0.273,0.627-0.646,1.08-1.193
	c0.277,0.344,0.764,0.861,1.4,1.611c-1.375,0.402-2.076,1.014-2.076,1.867c0,0.403,0.092,0.842,0.273,1.323
	c0.615,0,0.941-0.44,0.941-1.323l-0.18-0.375c2.139,1.731,3.199,3.672,3.199,5.887v17.227c-0.197-0.375-0.658-0.955-1.318-1.668
	l-2.092,2.283c-0.732,0.203-1.857,0.783-3.367,1.793c-1.125-0.131-2.598-3.066-4.438-8.775c-0.279,1.117-0.445,2.242-0.445,3.398
	c0,1.195,0.166,2.385,0.555,3.584c-0.42-0.213-1.225-0.756-2.352-1.707l-0.838,0.922c1.449,1.533,2.346,3.027,2.734,4.559
	c-0.33,0.133-0.873,0.572-1.6,1.295c0,0.547,0.6,0.814,1.852,0.814c0.467,0,0.711-0.201,0.807-0.609
	c0.107-0.379,0.322-0.588,0.613-0.588c0.377,0,1.217,0.828,2.527,2.49v0.516c0,1.627,0.541,4.18,1.613,7.555
	c0.512-0.449,0.971-0.814,1.318-1.094c0,1.871-0.076,3.201-0.209,3.988c0.209-0.518,0.559-1.293,1.08-2.279l1.115,1.092
	c0.328-0.209,0.414-0.654,0.354-1.404l-0.068-1.08l-0.861-0.992c-0.326,0.033-0.455,0.23-0.455,0.58
	c0.164-2.115,0.314-4.291,0.455-6.469c0.453-2.557,1.379-4.256,2.822-5.215c0.131,0.271,0.197,2.971,0.197,8.107
	c0,15.996,3.941,24.033,11.854,24.033c3.627,0,6.48-1.371,8.572-4.092c1.854-2.549,2.826-5.742,2.826-9.695v-19.234h20.684
	C495.265,184.713,495.503,187.029,495.503,190.156 M469.22,67.309h-0.734l-0.678-1.392l0.779-0.413L469.22,67.309z M384.407,204.313
	c-0.736-0.338-1.863-0.775-3.375-1.391c0,0.482,0.199,1.156,0.609,2.105c0.42,0.916,0.617,1.602,0.617,2.08
	C383.19,205.986,383.927,205.063,384.407,204.313 M385.815,202.313h-1.027v2.889h1.027V202.313z M390.351,202.822l-2.252-0.787
	v0.887l1.957,0.711L390.351,202.822z M399.083,197.645c-1.189-1.258-2.352-1.902-3.461-1.902v1.092v0.713
	c0,0.705,0.053,1.697,0.186,2.893C397.134,200.439,398.222,199.482,399.083,197.645 M376.694,158.262h-2.83
	c0.326,0.912,1.037,2.082,2.191,3.466C376.056,161.938,376.249,160.781,376.694,158.262 M380.265,159.721
	c-0.543-0.572-1.313-0.881-2.242-0.881l0.82,2.888C378.843,160.412,379.329,159.721,380.265,159.721 M380.837,155.467v-2.107
	c-0.445,0.196-0.832,0.313-1.211,0.313c-0.783,0-1.455-0.352-2.084-1.025v5.521c0.508-0.549,1.301-1.301,2.463-2.332
	C380.485,155.401,380.771,155.269,380.837,155.467 M378.108,140.286l-1.221-2.581h-0.926l1.414,2.892L378.108,140.286z
	 M392.046,140.286l-2.629-0.877c-2.533,1.967-3.797,4.185-3.797,6.566c0,1.188,1.203,2.722,3.502,4.593
	c-1.955,0.642-2.914,1.565-2.914,2.694c0,0.679,0.762,0.98,2.338,0.98c-0.402-0.375-0.635-0.783-0.635-1.186
	c0-0.352,0.154-0.657,0.447-0.991c0.508,0.198,1,0.542,1.41,0.991v0.499c0.068,1.264-0.16,2.118-0.646,2.59h2.252v-13.167
	c-0.863,0.891-1.672,1.496-2.342,1.906l-0.486-2.693C389.38,141.787,390.536,141.171,392.046,140.286 M398.45,158.527v-2.691
	c-1.908-0.982-2.828-2.033-2.828-3.189c0-0.383,0.02-0.963,0.123-1.668c0.092-0.757,0.164-1.257,0.164-1.611
	c-0.457,0.286-1.094,0.413-2.002,0.413c0,3.841-0.027,6.778-0.094,8.747H398.45z M397.962,143.897
	c-1.256-0.75-2.732-1.845-4.443-3.301v2.008c0,0.782-0.465,1.431-1.473,1.87c1.008,0.682,1.445,1.564,1.318,2.688
	C395.368,146.517,396.909,145.428,397.962,143.897 M361.089,223.648l-0.773,1.605l-0.822-0.379l0.725-1.492L361.089,223.648z
	 M361.636,216.984l-0.742,1.697l-0.838-0.406l0.748-1.604L361.636,216.984z M371.435,187.982c-0.68,0.234-1.195,0.578-1.514,0.979
	c0-0.979-0.283-1.486-0.838-1.486L371.435,187.982z M378.782,195.529h-1.051v-2.273h1.051V195.529z M368.704,174.912h-0.844
	l-0.768-1.404l0.875-0.305L368.704,174.912z M410.933,219.57h-2.346c0.963-1.705,1.41-2.66,1.41-2.791
	c-0.184,1.805-0.291,2.41-0.291,1.805C409.706,219.189,410.124,219.506,410.933,219.57 M369.638,170.313
	c-0.133,0.27-0.197,1.531-0.197,3.775c0-1.057-0.609-1.6-1.861-1.6v-2.594c0.063,0.688,0.281,1.166,0.637,1.512L369.638,170.313z
	 M410.292,214.699c0,1.055-0.068-1.082-0.199-6.395c-0.309,0.879-1.119,1.961-2.436,3.293c0.135-0.137,0.254-0.205,0.381-0.205
	c0.291,0,0.682,0.281,1.131,0.787c-1.377,0.682-2.094,1.492-2.094,2.52c0-0.68,0.201-1.188,0.582-1.6
	c0.318,0.135,0.807,0.439,1.512,0.891c-0.385,0.4-0.582,0.879-0.582,1.387C409.706,215.377,410.292,215.139,410.292,214.699
	 M368.515,166.805c0-0.039-0.029-0.07-0.105-0.07c-0.254,0-0.668,0.342-1.316,1.086l-0.928-0.814
	c0.387,0.34,0.928,0.787,1.695,1.293C367.86,167.926,368.091,167.416,368.515,166.805 M408.784,207.623h-1.035v-1.611h1.035V207.623
	z M406.722,203.633h-2.186v-1.02h2.186V203.633z M407.657,199.521c0,1.02-0.217,1.703-0.676,2.1
	c-0.162-0.676-0.416-1.154-0.742-1.488C407.181,200.133,407.657,199.928,407.657,199.521 M419.698,212.898
	c-0.934,0-1.408,0.174-1.408,0.504c0-2.01-0.041-3.502-0.102-4.49C418.638,209.828,419.124,211.164,419.698,212.898
	 M415.845,203.705l-0.775,1.598l-0.83-0.367l0.74-1.502L415.845,203.705z M424.12,212.18c-0.252-0.238-1.107-0.379-2.523-0.379
	c0.35-0.68,0.551-1.182,0.551-1.598L424.12,212.18z M406.981,190.879l-0.639,3.354h-0.926l0.527-3.354H406.981z M427.987,213.203
	c0,1.051-0.318,2.041-0.971,2.996c-0.539-1.945-0.826-2.863-0.826-2.797c0-0.951,0.578-1.393,1.701-1.393l0.096,0.678V213.203z
	 M412.638,203.705c-1.264,0.473-2.373,0.777-3.375,0.922c0-4.469-0.424-9.842-1.225-16.174c0.486-0.133,1.225-0.336,2.158-0.582
	c0,6.914-0.156,11.742-0.49,14.541C410.87,203.023,411.829,203.467,412.638,203.705 M425.063,204.824
	c-1.25,1.33-1.928,2.686-1.99,4.088h-2.992c-0.186-0.066-0.574-0.377-1.117-0.918c-0.391-0.305-0.869-0.447-1.41-0.371h-0.674v-2.32
	c0.727,0.48,1.789,1.256,3.109,2.418c0.258-0.211,0.777-0.309,1.607-0.309c0.801,0,1.416-1.084,1.857-3.305
	C424.167,204.59,424.671,204.824,425.063,204.824 M411.704,196.723h-1.033v-1.66h1.033V196.723z M425.255,210.619h-0.861
	l-0.74-1.402l0.834-0.404L425.255,210.619z M429.501,210.982c0-0.574-0.227-1.082-0.672-1.494c-0.809,0.889-1.84,1.633-3.127,2.313
	c0.711-0.68,1.066-1.252,1.066-1.797c0-0.348-0.166-0.645-0.482-0.893c1.061,0,1.734,0.141,1.996,0.377
	c0.734-0.781,1.117-2.186,1.117-4.186c0.059,1.396,0.102,2.93,0.102,4.598V210.982z M428.282,203.705
	c-0.131,0.27-0.994,1.799-2.58,4.6v-2.293C427.017,205.334,427.892,204.59,428.282,203.705 M421.214,200.92h-1.025l-0.682-3.988
	h1.033L421.214,200.92z M405.214,182.771h-1.021v-1.604h1.021V182.771z M424.671,200.541l-0.725,2.381l-0.873-0.408l0.666-1.973
	H424.671z M424.394,199.613c-0.424,0.143-1.092,0.314-1.963,0.52c0.318,0,0.9-0.889,1.793-2.688
	C424.224,198.363,424.29,199.107,424.394,199.613 M419.034,193.838c0,0.615-0.07,1.324-0.166,2.105
	c-0.32-0.48-0.799-1.021-1.424-1.711v-4.076C418.511,190.773,419.034,191.996,419.034,193.838 M410.196,185.873
	c-0.678-0.143-1.223-0.414-1.609-0.779c0.582-1.949,0.838-3.273,0.773-4.023C409.911,182.016,410.196,183.625,410.196,185.873
	 M421.653,194.65l-0.732,1.6l-0.84-0.412l0.748-1.494L421.653,194.65z M377.376,147.574c-0.643,0.68-1.16,1.254-1.51,1.793
	c0,0.068-0.039-0.91-0.104-2.88v-0.413L377.376,147.574z M406.981,177.896l-1.414,2.082l-0.734-0.475l1.311-2.217L406.981,177.896z
	 M428.526,202.711h-0.352c-1.09,0-1.92-0.029-2.539-0.098l0.748-3.369C426.829,199.453,427.526,200.611,428.526,202.711
	 M404.45,100.396c-0.803,3.129-1.219,8.543-1.219,16.266v119.958h-12.881c0.063-0.268,0.102-0.477,0.102-0.678
	c0-0.686-0.465-1.023-1.33-1.023c-0.445,0-1.057,0.301-1.824,0.852c-0.809,0.582-1.418,0.85-1.836,0.85h-4.332v-27.912
	c-0.252-0.211-0.514-0.314-0.766-0.314c-0.359,0-0.738,0.143-1.123,0.42c0.439-0.682,0.834-1.672,1.123-2.996
	c-0.359,0.266-0.971,0.641-1.766,1.09c0.67-0.92,1.477-1.635,2.346-2.082v-16.682c-2.836-1.826-4.729-2.793-5.654-2.793
	c-0.389,0-0.934,0.139-1.646,0.42c-0.734,0.262-1.246,0.412-1.537,0.412c-0.07,0-0.104-0.043-0.104-0.107
	c0-0.201,0.395-0.748,1.232-1.596c-1.039-0.928-2.564-2.189-4.721-3.783c0.568,0,1.277-0.479,2.178-1.398
	c0,0.299-0.324,0.818-0.965,1.5c0.264,0.133,0.715,0.41,1.318,0.889c0.307-1.199,0.486-2.246,0.486-3.203
	c0-1.537-0.418-2.721-1.225-3.57v-3.105c0.869-2.135,1.32-4.525,1.32-7.176c0-1.196-0.127-2.928-0.322-5.239
	c-0.225-2.295-0.355-3.99-0.355-5.149c0-2.244,0.256-4.961,0.77-8.168c0.068,1.125,0.971,2.997,2.732,5.582
	c-0.459,1.256-0.674,3.021-0.674,5.277h1.41c0.639-0.579,0.867-1.018,0.678-1.295c0.279-0.237,0.449-2.049,0.449-5.374
	c0.512,0.403,1.154,1.187,1.885,2.382c0.262-0.311,0.398-0.682,0.398-1.089c0.6,0,1.273,0.376,1.953,1.089
	c0.643-0.581,0.932-1.301,0.932-2.079c0-1.468-0.734-2.381-2.242-2.786l-0.199,0.188c2.021-1.994,3.02-3.766,3.02-5.264
	c0-0.477-0.191-1.164-0.578-2c-0.354-0.861-0.539-1.576-0.539-2.124c-0.459-0.441-0.869-0.812-1.318-1.088
	c-0.193,0.755-0.783,1.873-1.703,3.4c0.186,0.137,0.354,0.206,0.479,0.206c0.318,0,0.67-0.165,1.119-0.503
	c0,0.472,0.039,1.155,0.105,2.108v2.075c-0.193-0.141-0.428-0.208-0.674-0.208c0.77,0-0.143,0.282-2.637,0.826
	c-0.066-0.337-0.293-0.889-0.734-1.609c0.801,0,1.6-0.402,2.342-1.185c-0.129-0.479-0.742-1.19-1.832-2.11
	c-1.09-0.922-1.639-1.602-1.639-2.007c0-0.515,0.381-1.024,1.152-1.534c0.809-0.508,1.223-0.878,1.283-1.16
	c0.582,0,1.221,0.408,1.955,1.226c0.074-0.066,0.109-0.17,0.109-0.302c0-0.489-0.295-1.333-0.93-2.59
	c0.994,0,1.85,0.302,2.529,0.981c0.393-0.327,0.578-0.917,0.578-1.694c0-1.95-0.67-3.232-1.986-3.888
	c0-0.813,0.318-1.186,0.961-1.186l0.355,0.17c0.311-1.494,0.484-2.861,0.484-4.086c0-2.718-0.816-4.462-2.346-5.274
	c0.545-0.414,1.334-0.995,2.346-1.8c-0.656-0.657-0.939-1.198-0.939-1.609c0-0.304,0.283-0.474,0.939-0.474l-1.223-22.84
	c0.738-0.409,1.223-2.009,1.408-4.798c0.197-2.452,1.059-3.709,2.639-3.777c-0.387,0.068-0.578,0.474-0.578,1.184h4.908
	c0.414-0.573,0.635-1.151,0.635-1.695c0-0.924-0.635-1.637-1.953-2.181c0.859-1.12,1.51-2.867,1.953-5.177
	c0.711,0.443,1.035,1.335,1.035,2.591c0,0.438-0.066,1.159-0.193,2.144c-0.09,0.957-0.158,1.675-0.158,2.147
	c0,1.766,0.996,2.684,2.984,2.684h8.674c0.199-0.198,0.422-0.303,0.643-0.303c0.449,0,0.902,0.405,1.318,1.198
	c-0.23,1.8-0.352,3.501-0.352,5.098C402.685,94.909,403.265,97.88,404.45,100.396 M405.214,176.199h-1.021v-3.502h1.021V176.199z
	 M428.526,193.936c-1.18-0.309-2.523,0-4.039,1.021v-2.316c-0.068,0,1.088-0.211,3.404-0.582
	C427.892,193.316,428.11,193.936,428.526,193.936 M410.583,179.195h-1.031v-6.498h1.031V179.195z M433.546,200.33h-1.064v-2.213
	h1.064V200.33z M375.188,129.943l-0.736,1.662l-0.867-0.376l0.771-1.588L375.188,129.943z M411.517,169.426
	c-0.807,0.443-1.811,0.682-2.93,0.682c0.066-0.99-0.156-1.936-0.646-2.9c0-0.201,0.523-0.748,1.609-1.701
	c0.361-2.313,0.609-4.178,0.742-5.578C410.933,164.112,411.313,167.281,411.517,169.426 M379.433,133.003
	c-0.449-0.248-1.088-0.366-1.963-0.366c0.289-0.486,0.701-1.267,1.223-2.328C379.165,130.79,379.433,131.672,379.433,133.003
	 M380.163,121.258c0,1.565-0.23,2.518-0.73,2.796c-1.262,0.571-1.963,0.945-2.057,1.086c0.674,0.713,1.025,1.43,1.025,2.074
	l-2.186-1.975v-2.115C377.181,122.758,378.489,122.112,380.163,121.258 M405.214,153.772h-1.021v-10.69h1.021V153.772z
	 M411.124,150.979l-0.639,2.794h-1.027l0.738-2.794H411.124z M418.765,158.633h-0.867l-0.736-1.491l0.838-0.274L418.765,158.633z
	 M376.694,118.155c-0.932,0-2.311-0.194-4.145-0.601c-0.443,1.394-0.637,3.152-0.637,5.269c0,3.402,0.412,5.754,1.322,7.12v3.26
	c-0.707,0.34-1.129,1.367-1.232,3.099c-0.123,1.946-0.438,3.178-0.957,3.679c0-2.786-0.061-5.687-0.191-8.644
	c0-0.748-0.184-1.909-0.615-3.481c-0.377-1.525-0.602-2.755-0.602-3.604c0-0.543,0.029-1.016,0.09-1.429
	c-0.604-0.238-1.404-0.711-2.334-1.392c0.73-0.248,1.121-0.879,1.121-1.869c0-0.614-0.191-1.467-0.547-2.589
	c-0.389-1.166-0.574-1.974-0.574-2.524c0-0.169,0.094-0.584,0.277-1.189c0.189-0.578,0.297-1.047,0.297-1.403
	c0-0.646-0.107-1.661-0.258-2.988c-0.164-1.333-0.223-2.318-0.223-3.003c0-1.56,0.35-2.811,1.027-3.667
	c-0.322-0.341-0.654-0.619-1.027-0.789c0.131-0.678-0.139-1.633-0.75-2.886c1.059-1.336,1.586-2.905,1.586-4.703
	c-0.879-1.527-1.32-3.436-1.32-5.681c0-1.332,0.223-3.331,0.615-6.029c0.416-2.694,0.574-4.732,0.506-6.128v-0.71
	c0.318,0.35,0.707,0.743,1.154,1.294c-0.643,12.22,0.482,22.597,3.379,31.11c-0.516,0.949-0.744,1.768-0.744,2.492
	c0,0.673,0.15,1.251,0.449,1.688c-0.43,1.268-0.643,2.245-0.643,2.897c0,1.541,1.189,2.317,3.57,2.317
	c-0.066,0,0.416-0.41,1.404-1.23V118.155z M441.255,182.863c-0.389-2.646-1.475-4.352-3.311-5.068l2.727-2.684
	C441.062,176.512,441.255,179.092,441.255,182.863 M409.36,145.975h-1.057v-1.698h1.057V145.975z M409.36,143.483h-0.877
	l-0.734-1.998l0.838-0.281L409.36,143.483z M375.763,100.292l-0.762,1.701l-0.834-0.413l0.734-1.572L375.763,100.292z
	 M411.124,134.607l-0.639,4.082h-1.027l0.635-4.082H411.124z M373.679,93.042h-1.506v-1.024h1.506V93.042z M410.87,132.017
	c-0.906,0-1.84-0.552-2.832-1.603h0.266c0.377,0,0.727,0.176,1.057,0.505c0.424-1.793,0.637-3.902,0.637-6.39
	C410.583,126.332,410.87,128.817,410.87,132.017 M378.952,93.417c-0.607-0.068-1.51-0.112-2.736-0.112l0.764-1.66
	C377.442,92.019,378.079,92.631,378.952,93.417 M418.765,136.202h-1.055v-3.407h1.055V136.202z M415.845,128.437h-1.02v-1.698h1.02
	V128.437z M375.29,84.841h-1.035l-0.67-2.802h0.959L375.29,84.841z M424.04,132.017h-0.967v-1.604h0.967V132.017z M406.981,111.286
	l-0.742,1.604l-0.822-0.414l0.727-1.599L406.981,111.286z M424.04,128.139l-0.781,1.594l-0.828-0.304l0.734-1.599L424.04,128.139z
	 M406.343,108.081l-0.672,0.583l-1.418-1.464l0.58-0.611L406.343,108.081z M410.933,97.398l-3.076-0.988
	c-0.064,1.47-0.107,3.708-0.107,6.668c-0.254-0.979-0.709-2.579-1.311-4.764c-0.385,0.21-0.584,0.478-0.584,0.891
	c0-0.523,0.227-1.325,0.617-2.388c0.418-1.056,0.604-1.909,0.604-2.49c0,0.996,0.385,1.503,1.16,1.503
	c0.352,0,0.549-0.411,0.549-1.222c0.385,0.47,1.055,0.715,2.086,0.715v5.584v13.164l-0.107,3.279c0,0.053-0.012,0.134-0.092,0.204
	c-0.887-1.202-1.99-3.274-3.309-6.269c0.459-0.615,0.676-1.089,0.676-1.394c0.197,0.372,0.643,0.951,1.42,1.664l0.926-1.094
	c0.072-0.778-0.545-1.488-1.797-2.071v-7.276c0-0.615,0.326-1.266,0.963-2.016C410.421,98.178,410.901,97.604,410.933,97.398
	 M418.868,109.892l-0.773,2.791h-0.934l0.646-2.791H418.868z M367.86,53.726h-1.602v-0.989h1.602V53.726z M389.862,73.77
	l-0.74,1.598l-0.764-0.4l0.764-1.499L389.862,73.77z M424.12,110.876h-1.047l-0.643-3.404h1.023L424.12,110.876z M367.188,45.655
	c0,1.464-0.477,2.664-1.508,3.576v-2.179L367.188,45.655z M411.124,93.107l-0.74,1.597l-0.834-0.377l0.742-1.484L411.124,93.107z
	 M419.034,102.982c-0.686-0.382-1.227-0.576-1.59-0.576v-2.216C417.88,100.87,418.415,101.791,419.034,102.982 M428.628,111.556
	l-1.67,0.814v-0.882l1.324-0.717L428.628,111.556z M389.417,68.085l-0.684,3.507h-1.02l0.645-3.507H389.417z M427.017,106.381
	l-0.826,0.514l-1.424-2.218l0.869-0.47L427.017,106.381z M431.733,108.974l-1.404,2.108l-0.828-0.508l1.404-2.183L431.733,108.974z
	 M431.005,107.372l-1.697,0.815v-0.921l1.314-0.783L431.005,107.372z M425.798,102.982h-1.031v-1.572h1.031V102.982z
	 M367.003,34.288l-0.648,2.786h-1.029l0.652-2.786H367.003z M435.499,98.524h-4.494v-1.125h4.494V98.524z M318.061,162.817
	c0-0.981-0.225-1.737-0.683-2.267c-0.797,0.844-1.214,1.656-1.214,2.379C316.612,162.863,317.251,162.817,318.061,162.817
	 M318.061,154.744v-0.972l-2.539-0.716v0.98L318.061,154.744z M324.154,106.482h-2.05v2.896l-0.928-0.617
	c-0.644,0-1.094,0.243-1.38,0.65c-0.294,0.447-0.423,0.985-0.423,1.67c0.384,0,0.802,0.237,1.32,0.676
	C321.204,111.385,322.345,109.618,324.154,106.482 M344.77,129.943h-0.924v1.562h0.924V129.943z M325.284,101.311l-1.32-1.598
	c-1.251,0.28-2.788,0.719-4.681,1.402v1.292v2.074v0.608h0.09h2.535C322.427,103.557,323.539,102.299,325.284,101.311
	 M336.784,109.176h-2v0.993h2V109.176z M344.198,234.443h-0.94v-2.787h0.94V234.443z M298.013,174.088l-1.314,2.211l-0.777-0.6
	l1.328-2.09L298.013,174.088z M344.302,224.164h-1.043v-7.586h1.043V224.164z M344.198,215.793h-0.94v-5.789h0.94V215.793z
	 M305.435,163.64c-1.13,1.672-2.634,4.216-4.499,7.651c-0.317-0.295-0.668-0.467-1.055-0.467c-0.356,0-0.708,0.207-1.038,0.582
	c0.46-0.375,1.382-1.844,2.837-4.4C302.801,165.108,304.053,163.977,305.435,163.64 M344.302,202.711l-0.654,5.785h-0.963
	l0.573-5.785H344.302z M311.855,166.805c-0.255-0.508-0.603-1.018-1.054-1.467c-0.07,0.998-0.485,2.379-1.323,4.191v-1.604
	c0.067-0.885-0.159-2.106-0.644-3.711c1.124,0,1.995-0.037,2.645-0.103C311.526,164.73,311.665,165.613,311.855,166.805
	 M303,157.338h-1.028l-0.582-5.166h1.059L303,157.338z M342.53,193.453l-1.414,1.504l-0.477-0.613l1.307-1.5L342.53,193.453z
	 M344.302,201.93h-1.043v-15.451h1.043V201.93z M314.106,162.93c-0.066-0.922-0.546-1.408-1.41-1.408l1.41-1.594V162.93z
	 M310.708,153.359l-0.65,5.168h-0.934l0.548-5.168H310.708z M345.9,191.752h-0.922v-1.701h0.922V191.752z M312.879,155.539h-0.951
	v-1.57h0.951V155.539z M340.921,181.473h-0.936v-2.176h0.936V181.473z M312.305,150.156h-0.92v-2.188h0.92V150.156z
	 M310.153,147.781h-1.029v-2.802h1.029V147.781z M345.159,184.369c-0.508,0-0.99,0.268-1.407,0.813v-3.908L345.159,184.369z
	 M313.724,144.475h-2.06v-1.09h2.06V144.475z M340.921,173.609h-0.936v-2.203h0.936V173.609z M312.209,137.094l-0.448,0.71
	l-1.42-1.502l0.552-0.613L312.209,137.094z M342.045,168.809h-0.928v-2.79h0.928V168.809z M348.632,173.609h-0.833l-0.682-2.008
	l0.869-0.311L348.632,173.609z M388.161,140.188c-2.406-1.735-8.377-2.591-17.98-2.591c-3.574,0-7.738,0.958-12.467,2.865
	c-4.746,1.867-8.375,4.078-10.977,6.596v0.215c-0.029,0.54,0.136,0.847,0.582,0.914h-0.39c-0.423,0-1.029,0.204-1.77,0.681
	c0.355,1.596,1.295,3.74,2.738,6.401v2.688c-0.968,0.375-1.363,1.633-1.228,3.672c-0.501-0.478-1.061-0.64-1.598-0.58v0.178
	c0,0.544-0.094,1.051-0.301,1.492c0.207,4.119,0.301,6.064,0.301,5.785c0,1.604-0.301,2.658-0.873,3.203
	c0.192,0.922,0.284,1.902,0.284,2.898c0,1.461-0.254,2.992-0.73,4.59c-0.071-1.805-0.071-4.117,0-6.979
	c0.061-3.605,0.094-5.92,0.094-6.973c0-6.27-0.411-11.064-1.222-14.367c-1.03,1.188-1.508,2.348-1.508,3.47
	c0,1.084,0.386,2.118,1.216,3.097c-0.507-0.47-1.055-0.65-1.693-0.576c-1.003,2.307-1.518,5.041-1.518,8.166
	c0,0.786,0.907,2.65,2.741,5.586c-0.677-0.07-1.331-0.445-1.877-1.09c-0.899,2.924-1.308,6.436-1.308,10.557
	c0,4.244,0.409,9.051,1.308,14.367c-0.638,2.922-0.952,7.342-0.952,13.268v29.105h-20.238v-70.49l-1.513-1.605
	c-0.353,0.473-0.736,0.842-1.118,1.188c-0.486-0.479-0.737-1.359-0.737-2.691c0-0.607,0.386-1.499,1.119-2.676
	c1.061-1.604,1.636-2.455,1.699-2.594c-0.763,0-1.409-0.377-1.989-1.09c-0.415,0.514-0.611,1.157-0.546,1.868
	c-0.456-1.06-1.153-1.594-2.176-1.594c0.506,0,0.952-0.208,1.314-0.583c-0.197-0.477-0.52-1.092-1.03-1.903l1.222,0.509
	l-0.094-0.311c0-0.848,0.537-2.148,1.6-3.783c-0.507-0.402-1.063-0.949-1.698-1.594c0.509-0.813,1.087-1.934,1.798-3.402l-0.1,0.104
	c0.188,0.541,0.61,1.095,1.224,1.705c-0.128-3.606-0.196-8.402-0.196-14.468c0-11.165,0.589-19.206,1.709-24.132
	c-0.4-1.676-6.046-2.455-17.024-2.387v-2.309c0.791-0.519,2.078-1.269,3.85-2.18c-3.145-3.406-5.363-5.108-6.678-5.108
	c-0.258,0-1.128,0.171-2.636,0.502V85.963h64.62v20.831c-1.256,0.405-5.203,0.577-11.85,0.577c-3.178,0-5.106,0.68-5.719,2.007
	c-0.452-0.683-1.179-1.5-2.281-2.483c-0.609,0.441-1.476,1.224-2.532,2.281v41.186c0.511,0.136,0.952,0.515,1.4,1.089
	c1.96-1.33,2.927-4.017,2.927-8.064c0-4.864-0.127-10.351-0.383-16.436c0.644-0.486,1.282-1.132,2-1.915
	c0,1.329-0.074,3.369-0.207,6.101c-0.119,2.707-0.2,4.759-0.2,6.161v8.271c0.589-0.042,1.23-0.074,2.007-0.074l-0.19-0.096
	c0.35-0.759,2.976-2.251,7.798-4.505c6.525-2.989,12.875-4.489,19.111-4.489c4.025,0,6.619,0.137,7.803,0.409
	C383.147,137.195,385.493,138.353,388.161,140.188 M380.327,190.879h-1.518v-1.129h1.518V190.879z M353.612,161.049h-0.943v-5.885
	h0.943V161.049z M383.353,188.66h-0.938v-1.605h0.938V188.66z M348.632,132.528l-1.963,5.581H345.8l2.097-5.992L348.632,132.528z
	 M353.612,139.877h-0.843l-0.665-1.39l0.762-0.27L353.612,139.877z M353.063,136.917h-0.959v-3.398h0.959V136.917z M344.198,123.635
	h-0.94v-5.167h0.94V123.635z M344.482,114.28c0,1.338-0.284,2.283-0.834,2.904c-0.39-2.492-0.57-3.689-0.57-3.62
	C343.648,114.035,344.105,114.28,344.482,114.28 M257.13,130.918c0-12.113-2.599-19.232-7.793-21.334
	c0,0.922-0.135,1.533-0.394,1.801c-0.133-0.812-0.669-1.801-1.604-2.995h-2.054c0.135,0.511,0.193,0.988,0.193,1.391
	c0,0.658-0.162,1.198-0.487,1.604c-0.768-0.812-1.118-1.494-1.118-2.103c0,1.594-0.57,2.373-1.698,2.373
	c0.572,0,0.825,0.143,0.825,0.413c-0.127,0.337-0.29,0.65-0.542,0.881c0.479-0.231,0.961-0.366,1.415-0.366
	c0.932,0,1.474,0.331,1.605,1.085c0.159,1.331,0.288,2.073,0.351,2.173c-0.125,0.209-0.32,0.311-0.544,0.311
	c-0.067,0-0.23-0.065-0.48-0.203c-0.249-0.142-0.386-0.331-0.386-0.682c-0.066,0.507-0.393,1.061-1.034,1.598l-0.927-1.024
	c0.415-0.445,0.745-0.912,0.927-1.392l-1.889,3.512c-0.484-0.558-1.29-1.096-2.345-1.713c-0.358,2.022-1.089,4.803-2.154,8.377
	l-0.867-0.99c0.517-0.846,0.777-1.557,0.777-2.104c0-0.439-0.208-0.825-0.589-1.089c0,0.407-0.188,0.914-0.603,1.57
	c-0.384,0.607-0.605,1.112-0.605,1.522v29.924h10.913C253.439,153.459,257.13,145.935,257.13,130.918 M225.598,99.41h-1.028v2.171
	h1.028V99.41z M225.598,91.645h-1.028v6.976h1.028V91.645z M206.774,214.797h-0.924v-1.596h0.924V214.797z M280.935,237.645h-22.488
	l-14.224-62.533h-9.03v62.533h-9.757V126.226c0-1.529-0.319-2.88-0.967-4.08v114.884H212.33v-19.945
	c-0.669-0.717-1.249-1.121-1.666-1.195l1.666-2.006V85.651c1.708,0.276,3.467,0.38,5.265,0.38c2.091,0,4.213-0.135,6.433-0.482
	c0.088,0.987,0.157,2.414,0.157,4.288c0.123,0.338,0.385,0.484,0.763,0.484c0.271-6.234,0.684-12.871,1.318-19.845
	c0,7.996,0.415,13.409,1.234,16.271c1.758-0.142,3.816-0.211,6.186-0.211c4.654,0,10.471,0.272,17.415,0.814
	c0.313-0.272,0.476-0.575,0.476-0.906c-0.059-0.284-0.188-0.481-0.382-0.683c0.961,1.047,1.604,1.589,1.99,1.589
	c0.608,0,0.9-0.34,0.839-1.016l1.218,1.596c0.959-0.54,1.629-0.773,2.083-0.773c0.353,0,0.512,0.34,0.452,1.087
	c14,4.731,20.996,18.854,20.996,42.371c0,8.994-0.801,16.071-2.371,21.246c-1.926,6.4-5.686,12.454-11.273,18.246L280.935,237.645z
	 M246.12,83.954c-1.129,0-1.701,0.204-1.701,0.578v-0.17c0.061-0.883,0.251-1.294,0.572-1.294
	C245.384,83.65,245.733,83.954,246.12,83.954 M281.665,84.259l-0.441,0.885l-2.087-1.494l0.574-0.785L281.665,84.259z
	 M285.657,85.449l-0.391,0.886l-2.54-1.399l0.259-0.88L285.657,85.449z M301.652,88.443l-2.101,1.502l-0.477-0.925l1.989-1.391
	L301.652,88.443z M310.574,89.329c-2.024,1.057-3.592,1.602-4.812,1.602c-0.292,0-0.803-0.21-1.482-0.652
	c-0.703-0.441-1.263-0.574-1.702-0.441c1.379-0.472,2.665-0.713,3.85-0.713c0.391,0,1.035,0.069,1.959,0.181
	C309.349,89.398,310.058,89.398,310.574,89.329 M121.32,198.328h-1.026v2.313h1.026V198.328z M110.981,222.662h-0.94v-2.176h0.94
	V222.662z M111.555,210.098h-0.863l-0.651-1.391l0.748-0.314L111.555,210.098z M122.082,224.164c0,1.734-0.22,3.846-0.673,6.396
	c0-1.166-0.153-3.264-0.441-6.396c-0.325-2.658-0.483-4.799-0.483-6.357v-4.025c0-3.846,0.066-6.199,0.191-7.082l1.122,0.713
	l0.098,2.379c0,2.08-0.166,5.496-0.487,10.287C121.862,221.066,122.082,222.426,122.082,224.164 M110.981,206.012h-0.94v-1.699h0.94
	V206.012z M128.191,218.891l-0.743,1.596l-0.865-0.408l0.777-1.494L128.191,218.891z M110.981,195.838h-0.94v-4.59h0.94V195.838z
	 M127.65,209.59h-1.067v-1.668h1.067V209.59z M127.65,195.838h-1.067v-1.695h1.067V195.838z M117.851,183.582l-0.769,1.6l-0.743-0.4
	l0.646-1.498L117.851,183.582z M110.789,172.115c-0.52,0.717-0.748,1.262-0.748,1.602l-1.503-1.602H110.789z M110.403,171.291
	h-0.932v-7.549h0.932V171.291z M127.801,180.287c-0.605-0.07-1.477-0.105-2.629-0.105l0.675-2.791
	c0.452,0.404,1.093,0.613,1.954,0.613V180.287z M110.403,153.969h-0.932v-1.604h0.932V153.969z M124.723,158.168h-0.961v-3.424
	h0.961V158.168z M127.258,122.922c0,1.606-0.252,2.424-0.771,2.424c-0.35,0-0.705-0.206-1.022-0.615
	c0,0.067-0.037,0.102-0.107,0.102c-0.051,0.202-0.087,0.378-0.087,0.513c0,0.333,0.061,0.709,0.194,1.189
	c-0.546,0-1.507-0.204-2.831-0.615c-0.863,1.813-1.314,3.508-1.314,5.108c0,1.727,0.508,3.299,1.508,4.765l-0.64,0.717
	c0,6.367-0.106,14.699-0.292,25.011c-0.258,13.797-0.411,22.129-0.487,25.059c0.203,0.449,0.487,1.092,0.872,1.873l-0.872,17.559
	c0.203-0.27,0.293-0.508,0.293-0.709c0-0.311-0.293-0.479-0.828-0.479c-0.454,0-0.934,0.203-1.417,0.578
	c0.127-1.898,0.194-3.738,0.194-5.475c0-1.676-0.067-3.234-0.194-4.693c-0.315,0.131-0.644,0.471-0.964,1.016
	c0-0.412,0.286-1.188,0.868-2.412c-0.259-0.107-0.709-0.455-1.318-0.994c-0.452,1.389-1.085,3.197-1.893,5.377
	c-0.517-2.037-0.748-3.098-0.748-3.158c0-0.354,1.077-2.051,3.189-5.117c0,0.756-0.292,1.438-0.936,2.113
	c0.388,0.07,0.838,0.344,1.414,0.885c0.615,0.068,0.934-0.336,0.934-1.191v-16.84c-0.479,0.199-1.257,0.406-2.244,0.57
	c0.315-2.035,0.486-3.068,0.486-3.068l-0.973-1.008c-0.478,0.33-0.933,0.512-1.314,0.512v-7.603
	c1.182-1.259,1.956-1.864,2.287-1.864c0.346,0,0.609,0.098,0.736,0.268l0.188,0.921c0.798-0.616,1.219-1.912,1.219-3.919
	c0-0.377-0.132-1.905-0.385-4.557c-0.319,0-0.676-0.031-1.13-0.105c1.13-2.516,1.704-6.979,1.704-13.372
	c0-1.969-0.157-3.334-0.48-4.09c0.264-0.924,0.388-1.701,0.388-2.275c0-0.608-0.124-1.096-0.388-1.408
	c0.579-1.082,0.936-6.525,1.13-16.359c0.06-5.999,0.121-11.953,0.182-17.944c0.389,5.371,0.595,10.379,0.595,14.941
	c0,3.671-0.142,7.079-0.392,10.282c-0.068,0.065-0.106,0.133-0.106,0.202c0,0.204,0.356,0.311,1.032,0.311
	C123.431,125.347,125.017,124.528,127.258,122.922 M155.847,187.162h-2.063v-1.088h2.063V187.162z M162.452,192.641l-0.569,0.813
	l-2.633-2.416l0.642-0.781L162.452,192.641z M156.808,183.582l-0.773,1.6l-0.828-0.4l0.732-1.498L156.808,183.582z M156.138,182.664
	h-0.845l-0.67-2.076l0.867-0.301L156.138,182.664z M128.191,148.187l-0.644,4.556h-0.964l0.58-4.556H128.191z M161.047,184.781
	l-3.217-0.615v-1.08l3.217,0.707V184.781z M128.098,146.957l-0.551,0.617l-1.41-1.5l0.548-0.58L128.098,146.957z M125.465,143.789
	c-0.331-0.195-0.777-0.402-1.418-0.603c0-0.481,0.482-1.645,1.418-3.469V143.789z M160.751,179.668h-0.959v-3.369h0.959V179.668z
	 M163.109,183.283h-1.038v-6.984h1.038V183.283z M119.554,130.006h-0.963v-2.177h0.963V130.006z M188.405,236.516h-52.597
	c-0.42,0.48-0.657,0.994-0.657,1.5c0-0.986-0.31-1.5-0.924-1.5c-0.447,0-0.676,0.418-0.676,1.225
	c-1.182-0.883-2.467-1.326-3.845-1.326c0.056-0.301,0.096-0.645,0.096-0.988c0-0.982-0.419-1.697-1.226-2.068
	c0.807-0.686,1.186-1.701,1.13-3.105l-0.932-58.334c-0.838,0.914-1.089,2.207-0.773,3.873c-0.486,0.193-1.255,0.305-2.25,0.305
	v-1.086c0-0.473,0.068-1.162,0.223-2.049c0.163-0.914,0.255-1.555,0.255-1.93c0-0.482-0.547-0.756-1.668-0.857
	c-1.089-0.104-1.638-0.58-1.638-1.461c0.197,0.07,0.386,0.096,0.581,0.096c0.477,0,1.219-0.271,2.148-0.781
	c-0.381-0.465-0.702-0.713-1.024-0.713l-0.39,0.203l1.033-1.499c0.381-0.136,0.772-0.546,1.12-1.183
	c0.261,0.572,0.713,1.391,1.314,2.371c0.65-0.502,0.975-1.289,0.975-2.273c0-0.756-0.208-1.602-0.582-2.588
	c0.257,0-0.162,0.373-1.225,1.191v-2.209c1.193-0.916,1.807-1.882,1.807-2.902c0-0.846-0.452-1.695-1.32-2.59l-1.513,1.203
	c-0.065-1.707-0.86-4.457-2.444-8.279c1.009,0,1.827-0.338,2.54-0.979c-0.192,0.188-0.291,1.188-0.291,2.993
	c0,1.322,0.543,2.815,1.606,4.494h1.422c0.671-1.026,1.026-2.687,1.026-5.112c0-0.337-0.106-0.85-0.323-1.525
	c-0.237-0.719-0.355-1.231-0.355-1.573l0.188-0.468c-0.188-1.81-0.478-2.692-0.927-2.692c-0.447,0-0.903,0.138-1.416,0.379
	c1.515-3.003,2.247-7.289,2.247-12.939c0-2.49-0.129-5.214-0.44-8.213c0.609-0.505,0.92-1.629,0.92-3.271
	c0-0.533-0.057-1.348-0.186-2.503c-0.125-1.125-0.198-1.954-0.198-2.486c0-1.807,0.098-4.468,0.263-8.037
	c0.16-3.544,0.227-6.231,0.227-8.035c0-4.493-0.355-8.581-1.026-12.256h59.248v21.342H151.54v39.793l0.84,0.992h7.058
	c1.063,0,1.899-0.377,2.541-1.197l0.734,0.82c1.641,0.246,5.106,0.377,10.47,0.377c3.374,0,5.369-0.992,6.005-3.002
	c0,0.346-0.254,0.959-0.738,1.805c-0.511,0.889-0.768,1.527-0.768,2.01v20.053h-4.689c-0.382,0.645-0.577,2.248-0.577,4.754
	c-0.613-1.18-0.932-2.609-0.932-4.283c-1.057-0.264-2.149-0.367-3.221-0.367c-1.251,0-2.535,0.137-3.841,0.475
	c-0.581,0.549-0.836,0.953-0.836,1.299c0,0.195,0.286,0.578,0.932,1.082c-0.261-0.236-0.582-0.373-0.932-0.373
	c-0.65,0-0.961,0.17-0.961,0.465v-0.166c0.055-0.4-0.2-0.916-0.811-1.568c-0.576-0.604-0.938-1.076-1.063-1.316
	c-0.377,0.578-0.959,1.393-1.697,2.389c0-1.197-0.19-2.023-0.574-2.389c-0.676,0-1.03,0.713-1.03,2.178
	c0-0.646-0.264-0.986-0.745-0.986c-0.318,0-0.766,0.125-1.308,0.379c0.796,0.818,1.215,1.48,1.215,2.104
	c0,0.613-0.804,1.297-2.339,2.115c0.54,0.307,1.317,0.881,2.245,1.67c-0.258,0.744-0.81,1.494-1.705,2.309
	c-0.859,0.789-1.312,1.604-1.312,2.389c0,0.33,0.03,0.717,0.094,1.086c-0.064-0.578-0.319-1.604-0.738-2.996
	c-0.123,0.547-0.648,1.254-1.505,2.207v33.605h37.053c-0.195,1.869-0.283,4.527-0.283,7.961
	C188.122,227.08,188.21,231.414,188.405,236.516 M173.183,178.004l-0.283,0.578c-0.388,0.207-0.578,0.51-0.578,0.922
	c-0.059-0.754-0.092-1.441-0.092-2.113v-1.803C172.862,176.676,173.183,177.455,173.183,178.004 M152.763,140.797h-0.967v-3.405
	h0.967V140.797z M121.896,97.398L121.125,99l-0.83-0.276l0.738-1.602L121.896,97.398z M121.896,96.52h-1.022v-6.985h1.022V96.52z
	 M162.452,133.61h-0.951v-1.593h0.951V133.61z M121.896,81.565h-1.022v-1.587h1.022V81.565z M171.098,129.732l-0.742,1.605
	l-0.869-0.309l0.769-1.6L171.098,129.732z M121.896,70.784h-1.022v-2.185h1.022V70.784z M163.109,113.866h-1.038v-1.597h1.038
	V113.866z M69.199,52.834H68.17V51.14h1.029V52.834z M69.877,59.614l-0.78,2.786h-1.02l0.769-2.786H69.877z M69.964,70.978
	c0,1.404-0.509,2.593-1.5,3.612v-2.208L69.964,70.978z M70.703,78.951h-1.605v-0.993h1.605V78.951z M78.346,109.989h-1.057
	l-0.642-2.79h1.025L78.346,109.989z M82.199,118.468c-0.697-0.07-1.631-0.101-2.821-0.101l0.84-1.706
	C80.662,117.071,81.3,117.65,82.199,118.468 M76.839,118.155h-1.702v-1.084h1.702V118.155z M78.896,125.446l-0.742,1.596
	l-0.865-0.403l0.771-1.604L78.896,125.446z M110.883,85.449L96.981,170c0.284-1.66,0.832,7.971,1.566,28.836
	c0,0.271,0.157,0.717,0.456,1.391c0.247,0.652,0.413,1.193,0.413,1.605v6.875c-2.151,0.986-3.496,2.039-4.047,3.094
	c0-0.885-0.158-1.453-0.48-1.797l-0.931,0.883c0.313,0.34,0.478,1.09,0.478,2.213c0.366-0.201,0.961-0.434,1.769-0.715v0.41
	c0.065,0.408,0.314,0.785,0.776,1.088l-0.104-0.211c-0.319-0.055-0.699-0.055-1.114-0.055c-0.961,0-1.42,0.129-1.42,0.465
	c0.127,0.412,0.292,0.746,0.546,0.994c-0.254-0.248-0.642-0.752-1.223-1.459c-0.518,0.439-0.73,0.842-0.73,1.18
	c0,0.209,0.151,0.447,0.439,0.791c0.324,0.338,0.481,0.672,0.481,0.99c-0.64-0.379-1.312-0.99-2.054-1.781h-0.186
	c-0.194,0-0.448,0.141-0.771,0.381v3.504c0.446,0.406,0.863,0.684,1.218,0.889c0,0.74-0.355,1.457-1.122,2.211l0.861,0.881
	c0.298-0.266,1.032-0.404,2.156-0.404c-1.253,1.324-1.992,2.785-2.156,4.393c-1.087,0.199-1.601,0.848-1.601,1.902
	c-0.392-0.473-1.059-1.02-1.997-1.703l0.105,0.408c0,0.787-0.366,1.979-1.033,3.469c0.74,0.824,1.319,1.301,1.705,1.4
	c-0.965,0-1.801-0.344-2.541-1.09c-0.261,1.334-0.644,3.131-1.155,5.377H61.197L32.529,85.449H55.49l17.499,94.42
	c1.189-5.1,2.794-14.43,4.877-27.904l0.097-0.209c0-0.267-0.352-0.547-1.023-0.879v-2.69c0.476,0.306,0.926,0.478,1.316,0.478
	c0.163-1.197,0.534-2.898,1.122-5.07c-1.183-0.756-2.476-1.092-3.855-1.092c-0.386,1.252-0.576,2.896-0.576,4.867
	c0,3.535,0.445,6.021,1.314,7.484v3.314c-0.662,0.231-1.09,1.252-1.222,2.951c-0.117,1.938-0.484,3.164-1.028,3.717
	c0-2.385-0.068-5.246-0.19-8.584c0-0.613-0.286-2.01-0.832-4.187c-0.52-1.737-0.646-3.17-0.391-4.284
	c-0.576-0.279-1.349-0.756-2.342-1.402c0.799-0.27,1.222-0.785,1.222-1.494c0-0.608-0.229-1.534-0.607-2.793
	c-0.423-1.264-0.615-2.248-0.615-2.896h0.634l-1.311-31.214c0-0.133,0.364-1.087,1.092-2.894c0.705-1.805,1.058-3.163,1.058-4.084
	c-0.034,1.662-0.065,3.302-0.065,4.862c0,7.191,0.773,14.129,2.347,20.773h-0.19c-0.383,0-0.577,0.403-0.577,1.19
	c0,1.599,0.84,3.199,2.475,4.808c-0.522,0.906-0.772,1.754-0.772,2.577c0,0.579,0.123,1.121,0.382,1.599
	c-0.192,0.579-0.29,1.126-0.29,1.606c0,1.629,1.099,2.854,3.307,3.565l1.126-1.091l9.123-55.445H110.883z M99.034,215.287h-1.032
	v-2.803h1.032V215.287z M99.32,220.381c0-0.266-0.07,0.586-0.201,2.59c-0.314-0.609-0.793-1.227-1.504-1.904
	C98.394,220.625,98.935,220.381,99.32,220.381 M97.525,219.465h-0.1h-0.288c-0.932,0-1.701,0.676-2.335,2.002v-0.5
	c0-0.92,0.152-1.941,0.469-3.102C95.796,217.865,96.519,218.416,97.525,219.465 M99.518,224.467l-0.399,0.787l-1.594-0.787
	l0.382-0.818L99.518,224.467z M99.614,230.623l-0.679,0.619l-1.51-1.498l0.678-0.574L99.614,230.623z M92.346,231.959l-1.127,2.18
	l-0.829-0.41l1.032-2.072L92.346,231.959z M39.421,235.84l-2.503,2.258l-5.885-5.838l2.13-2.256L39.421,235.84z M92.253,212.281
	l-0.637-2.277l-0.967,0.301l0.773,1.977H92.253z M87.473,228.148h-1.034v2.213h1.034V228.148z M493.438,80.69l-0.35-3.406
	l-0.385,2.807C492.942,80.289,493.196,80.492,493.438,80.69 M196.754,130.918h-1.077v20.563c0,2.628-0.556,5.002-1.488,7.284v32.639
	h-5.166v7.662h1.243v-2.373h6.488V130.918z M292.339,217.807v-18.051l-5.18-4.123L292.339,217.807z"/>
</svg>
